<svg id="Logo" xmlns="http://www.w3.org/2000/svg" viewBox="0 0 222 147.99">
  <title>Logo</title>
  <path style="fill: #093" d="M0,75A14.93,14.93,0,0,0,5,86.1V95a5,5,0,0,0,5,5h5a5,5,0,0,0,5-5V90H60v5a5,5,0,0,0,5,5h5a5,5,0,0,0,5-5V86.1A14.93,14.93,0,0,0,80,75V25C80,7.5,62.1,5,40,5S0,7.5,0,25Zm17.5,5A7.5,7.5,0,1,1,25,72.5,7.49,7.49,0,0,1,17.5,80Zm45,0A7.5,7.5,0,1,1,70,72.5,7.49,7.49,0,0,1,62.5,80ZM70,50H10V25H70Z"/>
  <path style="fill: #fc0" d="M142,72.5A17.52,17.52,0,0,0,159.5,90L152,97.5V100h60V97.5L204.5,90A17.52,17.52,0,0,0,222,72.5V20c0-17.5-17.9-20-40-20s-40,2.5-40,20ZM182,80a10,10,0,1,1,10-10A10,10,0,0,1,182,80Zm30-35H152V20h60Z"/>
  <path style="fill: #33f" d="M150,138a35.15,35.15,0,0,1-20-6.59,34.41,34.41,0,0,1-40,0A35.15,35.15,0,0,1,70,138H60v10H70a44.14,44.14,0,0,0,20-5,43.74,43.74,0,0,0,40,0,43.51,43.51,0,0,0,20,5h10V138ZM69.76,128H70c8,0,15.1-4.4,20-10,4.9,5.6,12,10,20,10s15.09-4.4,20-10c4.9,5.6,12,10,20,10h.25l9.45-33.4a5.26,5.26,0,0,0-.3-3.9,5,5,0,0,0-3-2.5L150,86.1V63a10,10,0,0,0-10-10H125V38H95V53H80A10,10,0,0,0,70,63V86.1l-6.45,2.1a5,5,0,0,0-3,2.5,5,5,0,0,0-.3,3.9ZM80,63h60V82.85L110,73,80,82.85Z"/>
</svg>
