<svg version="1" xmlns="http://www.w3.org/2000/svg" width="1365.333" height="1365.333" viewBox="0 0 1024.000000 1024.000000"><path d="M237 .6c-47.9 4.8-84.4 17.3-122 41.8C61.1 77.6 20.5 136 6.5 198.4c-6.5 29-6 5.5-6 313.6s-.5 284.6 6 313.6c21.1 93.8 98.1 170.8 191.9 191.9 29 6.5 5.5 6 313.6 6s284.6.5 313.6-6c93.8-21.1 170.8-98.1 191.9-191.9 6.5-29 6-5.5 6-313.6s.5-284.6-6-313.6C996.4 104.6 919.4 27.6 825.6 6.5 796.9.1 821.4.6 517 .4 364.9.4 238.9.5 237 .6zM597.5 117c34.4 5.1 67.1 15.3 97.6 30.4 94.2 46.8 160.2 137.7 175.3 241.6 1.6 10.8 3.6 34.2 3.6 41.7v4.3h-51.8l-.7-11.8c-3.6-60.5-23.8-113-61.2-158.8-47.7-58.3-119.8-94.7-194-98.1l-14.3-.6v-52l15.8.6c8.6.4 22 1.6 29.7 2.7zM583 218.6c71.7 10.1 134.5 56.2 166.1 121.9 12.8 26.5 20.4 56.9 21.1 84.5l.3 9.5-25.6.3-25.7.2-.6-8.2c-2.3-28.9-9-51.6-21.8-74.1-23.1-40.6-62.6-69.9-107.9-80.1-9.1-2-28.6-4.5-35.6-4.6-1 0-1.3-5.9-1.3-26.1v-26.1l10.3.7c5.6.4 14.9 1.3 20.7 2.1zm-71 93.3c46.1 4.1 75.3 10.7 99.5 22.5 13.2 6.5 21.5 12.6 31.3 23.1 8.5 9.1 15.7 22.7 19.4 36.5l2.3 8.5.3 151.5c.2 105.1 0 153.5-.8 158-2.7 16.1-10 31.3-20.9 43.2l-6.1 6.6v26.9c0 30.1-.5 33-6.6 40.1-1.9 2.3-6 5.3-9.2 6.9-5.7 2.8-5.8 2.8-25.7 2.8-18.8 0-20.3-.1-25-2.3-6.6-3-11.8-8.3-14.6-14.6-2-4.4-2.3-7.2-2.7-21.9l-.4-16.7H331v17.2c0 14.8-.3 17.9-1.9 21.4-2.8 6.2-8.4 11.9-14.4 14.5-4.9 2.3-6.3 2.4-25.2 2.4-18.2 0-20.4-.2-24.6-2.1-6.4-3-11.4-7.7-14.3-13.6l-2.6-5.2v-56.2l-4.6-4.4c-6.1-6-13.4-17.1-17.2-26.1-6.6-15.9-6.3-7.3-6-176.4l.3-153 2.8-9.3c15.1-51.5 63.2-75.4 163.7-81.1 20.2-1.2 108.9-.6 125 .8z"/><path d="M276 455v69h333V386H276v69zM307.7 609.1c-5.9 1.4-13.6 5.7-18.8 10.6-28.2 26.3-7.3 73.7 31.3 71 19.4-1.3 34.7-15.4 38.1-35 2.1-12.5-2.4-25.9-11.8-35.3-2.8-2.9-7-6.1-9.3-7.3-8.9-4.5-20.5-6.1-29.5-4zM557.5 609.3c-25 6.4-38.4 34.3-27.6 57.4 12.4 26.3 46.8 32.5 66.9 11.9 8.9-9 12.9-19.7 11.9-32.2-1.5-20.5-18.2-37-38.3-38-4.5-.2-10 .2-12.9.9z"/></svg>
